{
  "accessors": [
    {
      "bufferView": 2,
      "componentType": 5126,
      "count": 65532,
      "max": [
        0.9062634110450745,
        2.0250768661499023,
        0.15915222465991974
      ],
      "min": [
        -0.8211959004402161,
        -1.4635605812072754,
        -0.9353905916213989
      ],
      "type": "VEC3"
    },
    {
      "bufferView": 2,
      "byteOffset": 786384,
      "componentType": 5126,
      "count": 65532,
      "max": [
        0.9999762773513794,
        0.9999999403953552,
        0.9999949336051941
      ],
      "min": [
        -0.9999974370002747,
        -0.9912558197975159,
        -0.9999995231628418
      ],
      "type": "VEC3"
    },
    {
      "bufferView": 1,
      "componentType": 5126,
      "count": 65532,
      "max": [
        0.9764711856842041,
        0.9342995285987854
      ],
      "min": [
        0.04389834403991699,
        0.0031154986936599016
      ],
      "type": "VEC2"
    },
    {
      "bufferView": 1,
      "byteOffset": 524256,
      "componentType": 5126,
      "count": 65532,
      "max": [
        0.6214832067489624,
        0.6054918766021729
      ],
      "min": [
        0.4309949278831482,
        0.23167070746421814
      ],
      "type": "VEC2"
    },
    {
      "bufferView": 1,
      "byteOffset": 1048512,
      "componentType": 5126,
      "count": 65532,
      "max": [
        0.922493577003479,
        0.9996813535690308
      ],
      "min": [
        0.09032660722732544,
        0.0038799187168478966
      ],
      "type": "VEC2"
    },
    {
      "bufferView": 0,
      "componentType": 5125,
      "count": 327849,
      "type": "SCALAR"
    },
    {
      "bufferView": 2,
      "byteOffset": 1572768,
      "componentType": 5126,
      "count": 65532,
      "max": [
        0.9657337665557861,
        2.030824661254883,
        0.2212589979171753
      ],
      "min": [
        -0.9379211664199829,
        -1.398064136505127,
        -0.9302255511283875
      ],
      "type": "VEC3"
    },
    {
      "bufferView": 2,
      "byteOffset": 2359152,
      "componentType": 5126,
      "count": 65532,
      "max": [
        0.9999935030937195,
        0.9999224543571472,
        1.0
      ],
      "min": [
        -0.9999974370002747,
        -0.9335618019104004,
        -0.9999949336051941
      ],
      "type": "VEC3"
    },
    {
      "bufferView": 1,
      "byteOffset": 1572768,
      "componentType": 5126,
      "count": 65532,
      "max": [
        0.8852339386940002,
        0.9964367151260376
      ],
      "min": [
        0.0032071415334939957,
        0.0030493729282170534
      ],
      "type": "VEC2"
    },
    {
      "bufferView": 1,
      "byteOffset": 2097024,
      "componentType": 5126,
      "count": 65532,
      "max": [
        0.6333925127983093,
        0.6061151027679443
      ],
      "min": [
        0.4198070168495178,
        0.23870474100112915
      ],
      "type": "VEC2"
    },
    {
      "bufferView": 1,
      "byteOffset": 2621280,
      "componentType": 5126,
      "count": 65532,
      "max": [
        0.9632189869880676,
        0.9993879795074463
      ],
      "min": [
        0.00012144178617745638,
        0.00047730765072628856
      ],
      "type": "VEC2"
    },
    {
      "bufferView": 0,
      "byteOffset": 1311396,
      "componentType": 5125,
      "count": 319068,
      "type": "SCALAR"
    },
    {
      "bufferView": 2,
      "byteOffset": 3145536,
      "componentType": 5126,
      "count": 65532,
      "max": [
        0.9680405259132385,
        2.0392770767211914,
        0.2134724110364914
      ],
      "min": [
        -0.9687325954437256,
        -1.4734011888504028,
        -0.9794411063194275
      ],
      "type": "VEC3"
    },
    {
      "bufferView": 2,
      "byteOffset": 3931920,
      "componentType": 5126,
      "count": 65532,
      "max": [
        0.9998896718025208,
        0.9999732971191406,
        0.9999943971633911
      ],
      "min": [
        -0.9999632835388184,
        -0.9999927878379822,
        -0.9999939203262329
      ],
      "type": "VEC3"
    },
    {
      "bufferView": 1,
      "byteOffset": 3145536,
      "componentType": 5126,
      "count": 65532,
      "max": [
        0.99320387840271,
        0.9931374788284302
      ],
      "min": [
        0.0033405774738639593,
        0.0030459619592875242
      ],
      "type": "VEC2"
    },
    {
      "bufferView": 1,
      "byteOffset": 3669792,
      "componentType": 5126,
      "count": 65532,
      "max": [
        0.633477509021759,
        0.6070089340209961
      ],
      "min": [
        0.41630351543426514,
        0.2306244969367981
      ],
      "type": "VEC2"
    },
    {
      "bufferView": 1,
      "byteOffset": 4194048,
      "componentType": 5126,
      "count": 65532,
      "max": [
        0.9816579818725586,
        0.989513099193573
      ],
      "min": [
        0.00012144178617745638,
        5.291010296559762e-09
      ],
      "type": "VEC2"
    },
    {
      "bufferView": 0,
      "byteOffset": 2587668,
      "componentType": 5125,
      "count": 322170,
      "type": "SCALAR"
    },
    {
      "bufferView": 2,
      "byteOffset": 4718304,
      "componentType": 5126,
      "count": 65533,
      "max": [
        0.9414740800857544,
        2.0389461517333984,
        0.2212589979171753
      ],
      "min": [
        -0.9689474105834961,
        -1.4736367464065552,
        -0.97933429479599
      ],
      "type": "VEC3"
    },
    {
      "bufferView": 2,
      "byteOffset": 5504700,
      "componentType": 5126,
      "count": 65533,
      "max": [
        0.9999913573265076,
        0.9999951720237732,
        0.9999943971633911
      ],
      "min": [
        -0.9999751448631287,
        -0.999997615814209,
        -0.9999954700469971
      ],
      "type": "VEC3"
    },
    {
      "bufferView": 1,
      "byteOffset": 4718304,
      "componentType": 5126,
      "count": 65533,
      "max": [
        0.9931795001029968,
        0.9968481063842773
      ],
      "min": [
        0.003045996418222785,
        0.0030729123391211033
      ],
      "type": "VEC2"
    },
    {
      "bufferView": 1,
      "byteOffset": 5242568,
      "componentType": 5126,
      "count": 65533,
      "max": [
        0.6304397583007813,
        0.6069599986076355
      ],
      "min": [
        0.41630351543426514,
        0.23060104250907898
      ],
      "type": "VEC2"
    },
    {
      "bufferView": 1,
      "byteOffset": 5766832,
      "componentType": 5126,
      "count": 65533,
      "max": [
        0.9765221476554871,
        0.9998769760131836
      ],
      "min": [
        2.2429305317928083e-05,
        2.576706847889909e-08
      ],
      "type": "VEC2"
    },
    {
      "bufferView": 0,
      "byteOffset": 3876348,
      "componentType": 5125,
      "count": 241065,
      "type": "SCALAR"
    },
    {
      "bufferView": 2,
      "byteOffset": 6291096,
      "componentType": 5126,
      "count": 32261,
      "max": [
        0.9669784307479858,
        2.0367727279663086,
        0.2210608273744583
      ],
      "min": [
        -0.9644577503204346,
        -1.4736367464065552,
        -0.9792942404747009
      ],
      "type": "VEC3"
    },
    {
      "bufferView": 2,
      "byteOffset": 6678228,
      "componentType": 5126,
      "count": 32261,
      "max": [
        0.9999133348464966,
        0.9999635219573975,
        0.9996767640113831
      ],
      "min": [
        -0.9999582171440125,
        -0.999997615814209,
        -0.9999771118164063
      ],
      "type": "VEC3"
    },
    {
      "bufferView": 1,
      "byteOffset": 6291096,
      "componentType": 5126,
      "count": 32261,
      "max": [
        0.9924038648605347,
        0.9939086437225342
      ],
      "min": [
        0.003653758205473423,
        0.0030594016425311565
      ],
      "type": "VEC2"
    },
    {
      "bufferView": 1,
      "byteOffset": 6549184,
      "componentType": 5126,
      "count": 32261,
      "max": [
        0.6332067251205444,
        0.606742262840271
      ],
      "min": [
        0.41634440422058105,
        0.23060104250907898
      ],
      "type": "VEC2"
    },
    {
      "bufferView": 1,
      "byteOffset": 6807272,
      "componentType": 5126,
      "count": 32261,
      "max": [
        0.9810343384742737,
        0.9945148229598999
      ],
      "min": [
        0.0003972106787841767,
        0.00014035039930604398
      ],
      "type": "VEC2"
    },
    {
      "bufferView": 0,
      "byteOffset": 4840608,
      "componentType": 5125,
      "count": 88674,
      "type": "SCALAR"
    },
    {
      "bufferView": 2,
      "byteOffset": 7065360,
      "componentType": 5126,
      "count": 36238,
      "max": [
        0.36080795526504517,
        2.85392427444458,
        -0.022082015872001648
      ],
      "min": [
        -0.27535128593444824,
        2.0092833042144775,
        -0.6874516606330872
      ],
      "type": "VEC3"
    },
    {
      "bufferView": 2,
      "byteOffset": 7500216,
      "componentType": 5126,
      "count": 36238,
      "max": [
        1.0,
        1.0,
        1.0
      ],
      "min": [
        -1.0,
        -1.0,
        -0.9999986886978149
      ],
      "type": "VEC3"
    },
    {
      "bufferView": 1,
      "byteOffset": 7065360,
      "componentType": 5126,
      "count": 36238,
      "max": [
        0.9938251972198486,
        0.995110273361206
      ],
      "min": [
        0.003045986406505108,
        0.0569019578397274
      ],
      "type": "VEC2"
    },
    {
      "bufferView": 1,
      "byteOffset": 7355264,
      "componentType": 5126,
      "count": 36238,
      "max": [
        1.0000001192092896,
        1.0000001192092896
      ],
      "min": [
        -4.440892098500626e-16,
        0.0
      ],
      "type": "VEC2"
    },
    {
      "bufferView": 1,
      "byteOffset": 7645168,
      "componentType": 5126,
      "count": 36238,
      "max": [
        0.0,
        0.0
      ],
      "min": [
        0.0,
        0.0
      ],
      "type": "VEC2"
    },
    {
      "bufferView": 0,
      "byteOffset": 5195304,
      "componentType": 5125,
      "count": 184458,
      "type": "SCALAR"
    },
    {
      "bufferView": 2,
      "byteOffset": 7935072,
      "componentType": 5126,
      "count": 274,
      "max": [
        0.034264009445905685,
        2.8080039024353027,
        -0.22458516061306
      ],
      "min": [
        -0.034264009445905685,
        2.7358174324035645,
        -0.29311317205429077
      ],
      "type": "VEC3"
    },
    {
      "bufferView": 2,
      "byteOffset": 7938360,
      "componentType": 5126,
      "count": 274,
      "max": [
        1.0,
        1.0,
        1.0
      ],
      "min": [
        -1.0,
        -1.0,
        -1.0
      ],
      "type": "VEC3"
    },
    {
      "bufferView": 1,
      "byteOffset": 7935072,
      "componentType": 5126,
      "count": 274,
      "max": [
        1.0,
        1.0
      ],
      "min": [
        0.0,
        0.01000000536441803
      ],
      "type": "VEC2"
    },
    {
      "bufferView": 1,
      "byteOffset": 7937264,
      "componentType": 5126,
      "count": 274,
      "max": [
        0.0,
        0.0
      ],
      "min": [
        0.0,
        0.0
      ],
      "type": "VEC2"
    },
    {
      "bufferView": 1,
      "byteOffset": 7939456,
      "componentType": 5126,
      "count": 274,
      "max": [
        0.9755613207817078,
        0.9754970669746399
      ],
      "min": [
        0.11635059863328934,
        0.7599521279335022
      ],
      "type": "VEC2"
    },
    {
      "bufferView": 0,
      "byteOffset": 5933136,
      "componentType": 5125,
      "count": 756,
      "type": "SCALAR"
    }
  ],
  "asset": {
    "extras": {
      "author": "oddphi5h (https://sketchfab.com/oddphi5h)",
      "license": "CC-BY-4.0 (http://creativecommons.org/licenses/by/4.0/)",
      "source": "https://sketchfab.com/3d-models/jean-paul-gaultier-ultramale-75ml-7acdc45af7914e16a80ae7c7cc07fe74",
      "title": "Jean Paul Gaultier Ultramale (75ml)"
    },
    "generator": "Sketchfab-15.58.0",
    "version": "2.0"
  },
  "bufferViews": [
    {
      "buffer": 0,
      "byteLength": 5936160,
      "name": "floatBufferViews",
      "target": 34963
    },
    {
      "buffer": 0,
      "byteLength": 7941648,
      "byteOffset": 5936160,
      "byteStride": 8,
      "name": "floatBufferViews",
      "target": 34962
    },
    {
      "buffer": 0,
      "byteLength": 7941648,
      "byteOffset": 13877808,
      "byteStride": 12,
      "name": "floatBufferViews",
      "target": 34962
    }
  ],
  "buffers": [
    {
      "byteLength": 21819456,
      "uri": "scene.bin"
    }
  ],
  "images": [
    {
      "uri": "textures/Glass_baseColor.png"
    },
    {
      "uri": "textures/Glass_metallicRoughness.png"
    },
    {
      "uri": "textures/Chrome_baseColor.png"
    }
  ],
  "materials": [
    {
      "alphaMode": "BLEND",
      "doubleSided": true,
      "name": "Glass",
      "pbrMetallicRoughness": {
        "baseColorFactor": [
          1.0,
          1.0,
          1.0,
          0.96
        ],
        "baseColorTexture": {
          "index": 0
        },
        "metallicRoughnessTexture": {
          "index": 1
        },
        "roughnessFactor": 0.3944419629682575
      }
    },
    {
      "doubleSided": true,
      "name": "Chrome",
      "pbrMetallicRoughness": {
        "baseColorTexture": {
          "index": 2
        },
        "metallicRoughnessTexture": {
          "index": 1
        },
        "roughnessFactor": 0.41873400185981174
      }
    },
    {
      "doubleSided": true,
      "name": "Plastic",
      "pbrMetallicRoughness": {
        "baseColorFactor": [
          0.203713,
          0.190046,
          0.161544,
          1.0
        ],
        "metallicFactor": 0.0,
        "roughnessFactor": 0.9573148576606684
      }
    }
  ],
  "meshes": [
    {
      "name": "JPGUltraMale_Glass_0",
      "primitives": [
        {
          "attributes": {
            "NORMAL": 1,
            "POSITION": 0,
            "TEXCOORD_0": 2,
            "TEXCOORD_1": 3,
            "TEXCOORD_2": 4
          },
          "indices": 5,
          "material": 0,
          "mode": 4
        }
      ]
    },
    {
      "name": "JPGUltraMale_Glass_0",
      "primitives": [
        {
          "attributes": {
            "NORMAL": 7,
            "POSITION": 6,
            "TEXCOORD_0": 8,
            "TEXCOORD_1": 9,
            "TEXCOORD_2": 10
          },
          "indices": 11,
          "material": 0,
          "mode": 4
        }
      ]
    },
    {
      "name": "JPGUltraMale_Glass_0",
      "primitives": [
        {
          "attributes": {
            "NORMAL": 13,
            "POSITION": 12,
            "TEXCOORD_0": 14,
            "TEXCOORD_1": 15,
            "TEXCOORD_2": 16
          },
          "indices": 17,
          "material": 0,
          "mode": 4
        }
      ]
    },
    {
      "name": "JPGUltraMale_Glass_0",
      "primitives": [
        {
          "attributes": {
            "NORMAL": 19,
            "POSITION": 18,
            "TEXCOORD_0": 20,
            "TEXCOORD_1": 21,
            "TEXCOORD_2": 22
          },
          "indices": 23,
          "material": 0,
          "mode": 4
        }
      ]
    },
    {
      "name": "JPGUltraMale_Glass_0",
      "primitives": [
        {
          "attributes": {
            "NORMAL": 25,
            "POSITION": 24,
            "TEXCOORD_0": 26,
            "TEXCOORD_1": 27,
            "TEXCOORD_2": 28
          },
          "indices": 29,
          "material": 0,
          "mode": 4
        }
      ]
    },
    {
      "name": "JPGUltraMale_Chrome_0",
      "primitives": [
        {
          "attributes": {
            "NORMAL": 31,
            "POSITION": 30,
            "TEXCOORD_0": 32,
            "TEXCOORD_1": 33,
            "TEXCOORD_2": 34
          },
          "indices": 35,
          "material": 1,
          "mode": 4
        }
      ]
    },
    {
      "name": "JPGUltraMale_Plastic_0",
      "primitives": [
        {
          "attributes": {
            "NORMAL": 37,
            "POSITION": 36,
            "TEXCOORD_0": 38,
            "TEXCOORD_1": 39,
            "TEXCOORD_2": 40
          },
          "indices": 41,
          "material": 2,
          "mode": 4
        }
      ]
    }
  ],
  "nodes": [
    {
      "children": [
        1
      ],
      "matrix": [
        1.0,
        0.0,
        0.0,
        0.0,
        0.0,
        2.220446049250313e-16,
        -1.0,
        0.0,
        0.0,
        1.0,
        2.220446049250313e-16,
        0.0,
        0.0,
        0.0,
        0.0,
        1.0
      ],
      "name": "Sketchfab_model"
    },
    {
      "children": [
        2
      ],
      "matrix": [
        0.009999999776482582,
        0.0,
        0.0,
        0.0,
        0.0,
        0.0,
        0.009999999776482582,
        0.0,
        0.0,
        -0.009999999776482582,
        0.0,
        0.0,
        0.0,
        0.0,
        0.0,
        1.0
      ],
      "name": "c36e6d514fd24dd0ae277abf3ef7b309.fbx"
    },
    {
      "children": [
        3
      ],
      "name": "RootNode"
    },
    {
      "children": [
        4,
        5,
        6,
        7,
        8,
        9,
        10
      ],
      "matrix": [
        100.0,
        0.0,
        0.0,
        0.0,
        0.0,
        99.99999999999972,
        -7.5497901264043296e-06,
        0.0,
        0.0,
        7.5497901264043296e-06,
        99.99999999999972,
        0.0,
        0.0,
        184.37953186035156,
        0.0,
        1.0
      ],
      "name": "JPGUltraMale"
    },
    {
      "mesh": 0,
      "name": "JPGUltraMale_Glass_0"
    },
    {
      "mesh": 1,
      "name": "JPGUltraMale_Glass_0"
    },
    {
      "mesh": 2,
      "name": "JPGUltraMale_Glass_0"
    },
    {
      "mesh": 3,
      "name": "JPGUltraMale_Glass_0"
    },
    {
      "mesh": 4,
      "name": "JPGUltraMale_Glass_0"
    },
    {
      "mesh": 5,
      "name": "JPGUltraMale_Chrome_0"
    },
    {
      "mesh": 6,
      "name": "JPGUltraMale_Plastic_0"
    }
  ],
  "samplers": [
    {
      "magFilter": 9729,
      "minFilter": 9987,
      "wrapS": 10497,
      "wrapT": 10497
    }
  ],
  "scene": 0,
  "scenes": [
    {
      "name": "Sketchfab_Scene",
      "nodes": [
        0
      ]
    }
  ],
  "textures": [
    {
      "sampler": 0,
      "source": 0
    },
    {
      "sampler": 0,
      "source": 1
    },
    {
      "sampler": 0,
      "source": 2
    }
  ]
}
